<?xml version="1.0" encoding="UTF-8"?>
<svg version="1.1" xmlns="http://www.w3.org/2000/svg" width="500" height="500">
<path d="M0 0 C165 0 330 0 500 0 C500 165 500 330 500 500 C335 500 170 500 0 500 C0 335 0 170 0 0 Z " fill="#FEFEFE" transform="translate(0,0)"/>
<path d="M0 0 C7.46943591 -0.3318013 14.93695205 -0.55813893 22.41210938 -0.71411133 C24.94994084 -0.77917151 27.48729091 -0.86765615 30.0234375 -0.98071289 C52.28379558 -1.94760344 52.28379558 -1.94760344 58.26049805 2.80004883 C61.37391061 5.88356203 63.64502323 9.3191166 66 13 C67.39528998 14.47850545 68.82420461 15.92765729 70.3125 17.3125 C72.80843256 19.76734725 75.15659146 22.28164759 77.4375 24.9375 C80.00665271 27.92801716 82.69317256 30.73116684 85.5 33.5 C88.2244154 36.1877846 90.83260312 38.89816863 93.3125 41.8125 C96.37500161 45.38898789 99.65279959 48.69390105 103 52 C106.92065248 55.87256844 110.65404194 59.80792248 114.2265625 64.0078125 C117.19571847 67.34320797 120.41818343 70.42519327 123.59375 73.5625 C126.24959753 76.25283906 128.70135432 79.06573525 131.15625 81.9375 C134.15350228 85.29035849 137.39159634 88.39893756 140.58984375 91.55859375 C143.26854532 94.27202727 145.74608118 97.10777023 148.22265625 100.00390625 C150.94977223 103.06666727 153.89404637 105.90223493 156.8125 108.78125 C158.79720342 110.79430632 160.66096916 112.85446403 162.5 115 C168.95244065 122.97405349 168.95244065 122.97405349 177 129 C176.91519661 117.39402754 176.82016247 105.78818657 176.71247292 94.18240261 C176.662768 88.79195611 176.6164381 83.40152679 176.578125 78.01098633 C176.54094321 72.79780237 176.49449941 67.58477202 176.44193649 62.37172127 C176.42356562 60.39410185 176.40839565 58.41644973 176.39665604 56.43877983 C177.29082818 34.62615198 177.29082818 34.62615198 169.4921875 15.20703125 C164.96358652 11.30193331 160.71197434 9.59139584 155 8 C153.30969979 7.4459714 151.62206845 6.88371944 149.9375 6.3125 C149.18339844 6.06113281 148.42929688 5.80976563 147.65234375 5.55078125 C147.10707031 5.36902344 146.56179687 5.18726563 146 5 C146 3.35 146 1.7 146 0 C162.02164212 -0.0234621 178.04327858 -0.04104409 194.06493378 -0.05181217 C201.5056974 -0.05694704 208.9464503 -0.06393557 216.38720703 -0.07543945 C222.87995966 -0.08547279 229.37270452 -0.0918738 235.86546469 -0.09408849 C239.29659585 -0.09538106 242.72770477 -0.09837309 246.15882874 -0.10573006 C283.73874645 -0.1773503 283.73874645 -0.1773503 296.5625 2.6875 C297.74465088 2.94587646 297.74465088 2.94587646 298.95068359 3.20947266 C315.31985393 6.99713422 330.1092058 14.09537726 340.3828125 27.8515625 C345.27696341 35.79096286 346.02052444 44.90996791 345 54 C340.00453488 71.49484782 328.25030053 82.22804791 313 91 C303.36561708 96.19888149 292.80856743 99.36481582 282 101 C287.97295706 102.86266852 293.70492303 104.13628892 299.9375 104.75 C317.74115964 106.96185996 339.30965032 114.92847465 350.828125 129.27734375 C357.43146171 138.28063266 360.67911449 145.70632311 360.4375 156.9375 C360.44458984 157.86240234 360.45167969 158.78730469 360.45898438 159.74023438 C360.34114957 172.67487079 355.43323225 183.80075531 346.734375 193.3515625 C339.28701699 200.42990727 330.48282421 204.33031536 321 208 C320.23042969 208.30808594 319.46085937 208.61617187 318.66796875 208.93359375 C304.7886103 214.05542201 289.29209026 215.1141246 274.64648438 215.2722168 C272.83740349 215.29653023 272.83740349 215.29653023 270.99177551 215.32133484 C259.93942095 215.46086158 248.88625492 215.54094379 237.83319855 215.60025311 C229.67945852 215.64487709 221.52739231 215.72221959 213.37440062 215.84183758 C207.61959305 215.92340084 201.86524357 215.96641312 196.10988283 215.98155528 C192.68099151 215.991685 189.25422431 216.01867908 185.82597351 216.08786583 C182.00042228 216.15588793 178.17955159 216.16085127 174.35351562 216.15112305 C173.2311702 216.18550476 172.10882477 216.21988647 170.95246887 216.25531006 C166.11319604 216.18536919 163.16097437 215.95536374 159.3470459 212.81688881 C157.06877349 210.30152177 155.0211992 207.72369578 153 205 C151.96917987 203.84238067 150.92322182 202.69786284 149.85546875 201.57421875 C148.97503906 200.62160156 148.09460938 199.66898438 147.1875 198.6875 C146.29417969 197.72199219 145.40085938 196.75648438 144.48046875 195.76171875 C142 193 142 193 140.49298096 190.36860657 C136.61932032 186.68820219 132.79099046 187.29587394 127.63183594 187.34057617 C126.05088135 187.32485062 126.05088135 187.32485062 124.43798828 187.30880737 C120.95315319 187.27999884 117.46930812 187.28635609 113.984375 187.29296875 C111.56869253 187.27985732 109.15302104 187.26455482 106.73736572 187.24714661 C100.37840009 187.20721937 94.01972074 187.19710112 87.66064453 187.19311523 C81.17211174 187.18379845 74.68374819 187.14639399 68.1953125 187.11132812 C55.46355678 187.04667344 42.73190822 187.01254427 30 187 C30.63024379 188.60778013 31.26366789 190.21431383 31.8984375 191.8203125 C32.25083496 192.71508301 32.60323242 193.60985352 32.96630859 194.53173828 C35.14406981 199.73182471 37.51674942 201.99254858 42.625 204.1875 C47.03737456 205.81345675 51.43364847 206.83213789 56.06640625 207.60546875 C58 208 58 208 59 209 C59 210.98 59 212.96 59 215 C39.53 215 20.06 215 0 215 C0 213.02 0 211.04 0 209 C1.22976562 208.43732422 1.22976562 208.43732422 2.484375 207.86328125 C3.56203125 207.35152344 4.6396875 206.83976563 5.75 206.3125 C7.35101563 205.56419922 7.35101563 205.56419922 8.984375 204.80078125 C14.50992598 201.50119705 16.88071754 196.95417452 19 191 C20.40020386 183.08293119 20.15576393 175.06943848 20.16113281 167.05639648 C20.16576725 165.44097787 20.17079274 163.82556033 20.17617798 162.21014404 C20.18923724 157.84045281 20.19573334 153.47077689 20.20018864 149.10106921 C20.20312774 146.36855094 20.20723393 143.63603678 20.21169281 140.90352058 C20.22534599 132.34614185 20.23502527 123.78877261 20.2388947 115.23138374 C20.24338079 105.36633535 20.26096334 95.50142514 20.2898953 85.63641876 C20.31151516 77.99884109 20.32159902 70.36130232 20.32293582 62.72369438 C20.32398293 58.16671391 20.32987165 53.60986373 20.34775543 49.05291557 C20.36424309 44.76908942 20.3663883 40.48549149 20.35761642 36.2016449 C20.35684663 34.6323288 20.36118125 33.06300038 20.37107468 31.49371529 C20.383817 29.34620221 20.37790601 27.19949494 20.36749268 25.05198669 C20.36969252 23.25210124 20.36969252 23.25210124 20.3719368 21.41585445 C19.88378305 16.93266761 18.77637602 12.5673906 15.2734375 9.4765625 C10.20417822 7.20269723 5.55033683 6.25696004 0 6 C0 4.02 0 2.04 0 0 Z " fill="#020202" transform="translate(71,127)"/>
<path d="M0 0 C3.82235251 1.91117626 5.18314847 3.06097205 7.875 6.1875 C11.87471105 10.7500843 15.96971835 15.20363549 20.125 19.625 C24.17782858 23.94847799 28.1740356 28.29621397 32.0390625 32.7890625 C35.52684828 36.72150622 39.14744454 40.53176204 42.74169922 44.36669922 C46.78743953 48.68782095 50.77501302 53.05411905 54.71875 57.46875 C57.49297543 60.54700014 60.30815648 63.58579696 63.125 66.625 C76 80.53941974 76 80.53941974 76 82 C50.92 82 25.84 82 0 82 C0 54.94 0 27.88 0 0 Z " fill="#FBFBFB" transform="translate(99,196)"/>
<path d="M0 0 C9.09866712 8.87120044 11.76359053 19.98799675 12.03125 32.40625 C12.05132374 34.78256735 12.04666593 37.15644753 12.02148438 39.53271484 C12.00001701 41.93559612 12.02141236 44.33548929 12.046875 46.73828125 C12.07210712 60.88487789 9.94735273 76.65163123 -0.25 87.3125 C-6.72058636 91.543268 -11.42555809 93.6772539 -19.30859375 93.54296875 C-20.47060303 93.5277417 -21.6326123 93.51251465 -22.82983398 93.49682617 C-24.15156616 93.46745972 -24.15156616 93.46745972 -25.5 93.4375 C-25.54648583 83.17952209 -25.58195143 72.92156954 -25.60362434 62.66350746 C-25.61402996 57.89949427 -25.62812989 53.13555354 -25.65087891 48.37158203 C-25.67272272 43.76799184 -25.68459282 39.16447103 -25.68975449 34.56083298 C-25.69342963 32.81070235 -25.70060588 31.06057522 -25.71146011 29.3104744 C-25.84696724 6.54155345 -25.84696724 6.54155345 -21.5625 0.875 C-15.65010074 -3.24576312 -6.34765693 -2.83377541 0 0 Z " fill="#FCFCFC" transform="translate(341.5,134.5625)"/>
<path d="M0 0 C17.11442318 0 28.40599526 1.10603963 40.7734375 12.65625 C49.7712874 22.33921538 51 32.11006 51 45 C34.17 45 17.34 45 0 45 C0 30.15 0 15.3 0 0 Z " fill="#FDFDFD" transform="translate(316,233)"/>
<path d="M0 0 C15.84 0 31.68 0 48 0 C45.2602643 8.21920709 41.63650471 13.75733635 33.98828125 18.03515625 C26.8406089 21.50367309 18.58442707 22.27644047 10.8125 20.5 C6.68624292 18.934868 4.31653648 16.68929884 2 13 C-0.10364885 8.16160763 0 5.62670821 0 0 Z " fill="#F3F3F3" transform="translate(315,314)"/>
<path d="M0 0 C2.10353495 -0.0810206 4.20795952 -0.13919907 6.3125 -0.1875 C7.48425781 -0.22230469 8.65601563 -0.25710938 9.86328125 -0.29296875 C13 0 13 0 14.9296875 1.38671875 C16 3 16 3 15.8125 5 C15 7 15 7 13 10 C14.32 10.66 15.64 11.32 17 12 C17.25 14.3125 17.25 14.3125 17 17 C14.60203607 19.49200173 13.24125409 19.97814727 9.765625 20.29296875 C8.60546875 20.25816406 7.4453125 20.22335937 6.25 20.1875 C5.07953125 20.16042969 3.9090625 20.13335937 2.703125 20.10546875 C1.81109375 20.07066406 0.9190625 20.03585937 0 20 C0.66 19.67 1.32 19.34 2 19 C2 13.06 2 7.12 2 1 C1.34 0.67 0.68 0.34 0 0 Z " fill="#D1D1D1" transform="translate(241,287)"/>
<path d="M0 0 C2.17890019 1.59652134 2.90414847 2.48127407 3.3984375 5.15625 C3.39070313 5.9296875 3.38296875 6.703125 3.375 7.5 C3.38273437 8.2734375 3.39046875 9.046875 3.3984375 9.84375 C2.9040804 12.51909429 2.1764752 13.40024058 0 15 C-6.02690583 15.75336323 -6.02690583 15.75336323 -8.9375 13.5 C-10.53330773 9.74515828 -10.3886759 7.08109691 -10 3 C-7.83160257 -1.08168929 -4.19435544 -0.44939523 0 0 Z " fill="#E1E1E1" transform="translate(287,292)"/>
<path d="M0 0 C2.17890019 1.59652134 2.90414847 2.48127407 3.3984375 5.15625 C3.39070312 5.9296875 3.38296875 6.703125 3.375 7.5 C3.38273438 8.2734375 3.39046875 9.046875 3.3984375 9.84375 C2.9040804 12.51909429 2.1764752 13.40024058 0 15 C-6.02690583 15.75336323 -6.02690583 15.75336323 -8.9375 13.5 C-10.53330773 9.74515828 -10.3886759 7.08109691 -10 3 C-7.83160257 -1.08168929 -4.19435544 -0.44939523 0 0 Z " fill="#E1E1E1" transform="translate(211,292)"/>
<path d="M0 0 C1.9375 1 1.9375 1 3 3 C3.3886759 7.08109691 3.53330773 9.74515828 1.9375 13.5 C-1.05072823 15.81346701 -3.34503841 15.4568702 -7 15 C-9.1764752 13.40024058 -9.9040804 12.51909429 -10.3984375 9.84375 C-10.39070313 9.0703125 -10.38296875 8.296875 -10.375 7.5 C-10.38273437 6.7265625 -10.39046875 5.953125 -10.3984375 5.15625 C-9.3305481 -0.62291619 -5.10780837 -0.54726518 0 0 Z " fill="#E3E3E3" transform="translate(271,292)"/>
<path d="M0 0 C5 0 5 0 7.45703125 2.40625 C8.23433594 3.4271875 9.01164063 4.448125 9.8125 5.5 C10.99779297 7.03140625 10.99779297 7.03140625 12.20703125 8.59375 C12.79871094 9.3878125 13.39039063 10.181875 14 11 C14.33 7.7 14.66 4.4 15 1 C14.34 0.67 13.68 0.34 13 0 C14.65 0 16.3 0 18 0 C17.01 0.495 17.01 0.495 16 1 C16 7.27 16 13.54 16 20 C11.92253099 17.9612655 10.50011968 16.50385618 7.75 13 C7.04359375 12.113125 6.3371875 11.22625 5.609375 10.3125 C4 8 4 8 4 6 C3.34 6 2.68 6 2 6 C2.11344376 8.1464753 2.24106345 10.29220592 2.375 12.4375 C2.44460937 13.63246094 2.51421875 14.82742188 2.5859375 16.05859375 C2.72257813 17.02925781 2.85921875 17.99992187 3 19 C3.66 19.33 4.32 19.66 5 20 C3.35 20 1.7 20 0 20 C0 13.4 0 6.8 0 0 Z " fill="#D5D5D5" transform="translate(181,287)"/>
<path d="M0 0 C2.31 0 4.62 0 7 0 C7 5.94 7 11.88 7 18 C8.32 18 9.64 18 11 18 C11.33 15.69 11.66 13.38 12 11 C13.65 11.33 15.3 11.66 17 12 C17.25 14.3125 17.25 14.3125 17 17 C14.60203607 19.49200173 13.24125409 19.97814727 9.765625 20.29296875 C8.60546875 20.25816406 7.4453125 20.22335937 6.25 20.1875 C5.07953125 20.16042969 3.9090625 20.13335937 2.703125 20.10546875 C1.81109375 20.07066406 0.9190625 20.03585937 0 20 C0.66 19.67 1.32 19.34 2 19 C2 13.06 2 7.12 2 1 C1.34 0.67 0.68 0.34 0 0 Z " fill="#EBEBEB" transform="translate(241,287)"/>
<path d="M0 0 C1.65 0 3.3 0 5 0 C5.33 7.26 5.66 14.52 6 22 C4.02 22 2.04 22 0 22 C0 14.74 0 7.48 0 0 Z " fill="#FAFAFA" transform="translate(293,285)"/>
<path d="M0 0 C2 2 2 2 2 6 C1.01 6 0.02 6 -1 6 C-1.103125 5.360625 -1.20625 4.72125 -1.3125 4.0625 C-1.539375 3.381875 -1.76625 2.70125 -2 2 C-2.99 1.67 -3.98 1.34 -5 1 C-5 3.97 -5 6.94 -5 10 C-3.68 10.66 -2.36 11.32 -1 12 C-0.34 12.33 0.32 12.66 1 13 C0.34 13.66 -0.32 14.32 -1 15 C-4.5 14.8125 -4.5 14.8125 -8 14 C-10.48038907 10.2794164 -10.46337203 8.40203429 -10 4 C-7.24521555 -0.13217668 -4.82659567 -0.62955596 0 0 Z " fill="#ECECEC" transform="translate(237,292)"/>
<path d="M0 0 C1.32 0 2.64 0 4 0 C4 5.61 4 11.22 4 17 C5.32 16.67 6.64 16.34 8 16 C8 16.66 8 17.32 8 18 C5.125 18.625 5.125 18.625 2 19 C0 17 0 17 -0.1953125 14.1796875 C-0.17210937 13.08914063 -0.14890625 11.99859375 -0.125 10.875 C-0.10695312 9.77929688 -0.08890625 8.68359375 -0.0703125 7.5546875 C-0.04710937 6.71164062 -0.02390625 5.86859375 0 5 C-0.66 4.67 -1.32 4.34 -2 4 C-1.34 4 -0.68 4 0 4 C0 2.68 0 1.36 0 0 Z " fill="#DEDEDE" transform="translate(218,288)"/>
<path d="M0 0 C1.98 0 3.96 0 6 0 C5.690625 0.598125 5.38125 1.19625 5.0625 1.8125 C3.89790296 4.08956772 3.89790296 4.08956772 3 7 C3.74851382 9.10234944 3.74851382 9.10234944 4.9375 11.1875 C5.31777344 11.90292969 5.69804687 12.61835938 6.08984375 13.35546875 C6.54037109 14.16951172 6.54037109 14.16951172 7 15 C5.02 15 3.04 15 1 15 C0.01 12.03 -0.98 9.06 -2 6 C-1.34 5.34 -0.68 4.68 0 4 C0 2.68 0 1.36 0 0 Z " fill="#EEEEEE" transform="translate(301,292)"/>
<path d="M0 0 C1.98 0.495 1.98 0.495 4 1 C4 4.63 4 8.26 4 12 C2.68 12.33 1.36 12.66 0 13 C-1 12 -1 12 -1.1328125 9.53125 C-1.13023437 8.5309375 -1.12765625 7.530625 -1.125 6.5 C-1.12757813 5.4996875 -1.13015625 4.499375 -1.1328125 3.46875 C-1 1 -1 1 0 0 Z " fill="#0F0F0F" transform="translate(266,293)"/>
<path d="M0 0 C1.98 0.495 1.98 0.495 4 1 C4 4.63 4 8.26 4 12 C2.68 12.33 1.36 12.66 0 13 C-1.18306728 10.63386544 -1.13354608 9.13219264 -1.125 6.5 C-1.12757813 5.7059375 -1.13015625 4.911875 -1.1328125 4.09375 C-1 2 -1 2 0 0 Z " fill="#0B0B0B" transform="translate(282,293)"/>
<path d="M0 0 C1.98 0.495 1.98 0.495 4 1 C4 4.63 4 8.26 4 12 C2.68 12.33 1.36 12.66 0 13 C-1.18306728 10.63386544 -1.13354608 9.13219264 -1.125 6.5 C-1.12757813 5.7059375 -1.13015625 4.911875 -1.1328125 4.09375 C-1 2 -1 2 0 0 Z " fill="#0B0B0B" transform="translate(206,293)"/>
<path d="M0 0 C4 1 4 1 5 2 C5.36090226 9.45864662 5.36090226 9.45864662 3 13 C2.01 12.67 1.02 12.34 0 12 C0 8.04 0 4.08 0 0 Z " fill="#F7F7F7" transform="translate(269,293)"/>
<path d="M0 0 C1.65 0.33 3.3 0.66 5 1 C5.25 3.3125 5.25 3.3125 5 6 C2.62130509 8.65315971 1.32875347 8.98103345 -2.25 9.1875 C-3.1575 9.125625 -4.065 9.06375 -5 9 C-4.0409375 8.7215625 -4.0409375 8.7215625 -3.0625 8.4375 C-0.57873787 7.05753944 -0.57873787 7.05753944 -0.25 3.375 C-0.1675 2.26125 -0.085 1.1475 0 0 Z " fill="#E1E1E1" transform="translate(253,298)"/>
<path d="M0 0 C2.475 0.495 2.475 0.495 5 1 C5 3.31 5 5.62 5 8 C3.35 8.33 1.7 8.66 0 9 C0 6.03 0 3.06 0 0 Z " fill="#030303" transform="translate(248,297)"/>
<path d="M0 0 C0.33 3.96 0.66 7.92 1 12 C-0.32 11.67 -1.64 11.34 -3 11 C-4.39935013 8.20129973 -4.25265405 6.09501208 -4 3 C-1.7 0 -1.7 0 0 0 Z " fill="#F9F9F9" transform="translate(281,294)"/>
<path d="M0 0 C0.33 3.96 0.66 7.92 1 12 C-0.32 11.67 -1.64 11.34 -3 11 C-4.39935013 8.20129973 -4.25265405 6.09501208 -4 3 C-1.7 0 -1.7 0 0 0 Z " fill="#F9F9F9" transform="translate(205,294)"/>
<path d="M0 0 C1.32 0.33 2.64 0.66 4 1 C4 2.98 4 4.96 4 7 C2.68 7.33 1.36 7.66 0 8 C0 5.36 0 2.72 0 0 Z " fill="#040404" transform="translate(248,288)"/>
<path d="M0 0 C2 2 2 2 2 6 C1.01 6 0.02 6 -1 6 C-1.103125 5.360625 -1.20625 4.72125 -1.3125 4.0625 C-1.6528125 3.0415625 -1.6528125 3.0415625 -2 2 C-2.99 1.67 -3.98 1.34 -5 1 C-5.33 1.66 -5.66 2.32 -6 3 C-6.99 3.33 -7.98 3.66 -9 4 C-8.67 3.01 -8.34 2.02 -8 1 C-5.23749964 -0.38125018 -3.05268901 -0.19079306 0 0 Z " fill="#D4D4D4" transform="translate(237,292)"/>
<path d="M0 0 C1.98 0.495 1.98 0.495 4 1 C4 2.32 4 3.64 4 5 C2.68 5 1.36 5 0 5 C-0.33 6.32 -0.66 7.64 -1 9 C-1.125 2.25 -1.125 2.25 0 0 Z " fill="#444444" transform="translate(232,293)"/>
<path d="M0 0 C1.98 0 3.96 0 6 0 C4.63016497 3.16115776 4.0109362 3.9927092 1 6 C0.67 4.02 0.34 2.04 0 0 Z " fill="#848484" transform="translate(301,292)"/>
</svg>
